# xmcd
#
# Track frame offsets:
#	150
#	17645
#	33150
#	51197
#	65200
#	80167
#	93987
#	108942
#	126287
#	142282
#	159034
#	174627
#
# Disc length: 2514 seconds
#
# Revision: 0
# Processed by: cddbd v1.5.2PL0 Copyright (c) Steve Scherf et al.
# Submitted via: dBpowerAMP V4.0
#
DISCID=a209d00c
DTITLE=Various Artist - encontro de violeiros
DYEAR=1900
DGENRE=sertanejo
TTITLE0=pescador de catireiro
TTITLE1=travessia do araguaia
TTITLE2=amigo fiel
TTITLE3=canoeiro
TTITLE4=roubei uma casada
TTITLE5=galo indio
TTITLE6=a vaca já foi pro brejo
TTITLE7=ferreirinha
TTITLE8=moça namoradeira
TTITLE9=rei do café
TTITLE10=peão da cidade
TTITLE11=bombardeio
EXTD=encontro de violeiros
EXTT0=
EXTT1=
EXTT2=
EXTT3=
EXTT4=
EXTT5=
EXTT6=
EXTT7=
EXTT8=
EXTT9=
EXTT10=
EXTT11=
PLAYORDER=
